<!DOCTYPE svg PUBLIC "-//W3C//DTD SVG 1.1//EN" "http://www.w3.org/Graphics/SVG/1.1/DTD/svg11.dtd">
<!-- Uploaded to: SVG Repo, www.svgrepo.com, Transformed by: SVG Repo Mixer Tools -->
<svg height="256px" width="256px" version="1.1" id="_x32_" xmlns="http://www.w3.org/2000/svg" xmlns:xlink="http://www.w3.org/1999/xlink" viewBox="0 0 512.00 512.00" xml:space="preserve" fill="#ffffff" stroke="#ffffff" stroke-width="5.12">
<g id="SVGRepo_bgCarrier" stroke-width="0"/>
<g id="SVGRepo_tracerCarrier" stroke-linecap="round" stroke-linejoin="round" stroke="#e00000" stroke-width="30.72"> <style type="text/css"> .st0{fill:#000000;} </style> <g> <path class="st0" d="M279.759,425.718v-52.76c0-5.331-4.34-9.67-9.671-9.67h-28.184c-5.34,0-9.67,4.339-9.67,9.67v52.76 c0,5.339,4.33,9.661,9.67,9.661h28.184C275.419,435.378,279.759,431.057,279.759,425.718z"/> <path class="st0" d="M152.404,426.457l64.299,1.391v-53.15l-64.299-32.715c-4.713-1.86-8.905-0.07-12.4,2.687 c-3.496,2.739-5.531,6.94-5.531,11.392l-0.009,56.307c0,4.444,2.044,8.653,5.54,11.41 C143.499,426.526,147.325,426.578,152.404,426.457z"/> <path class="st0" d="M371.981,423.778c3.496-2.757,5.54-6.948,5.54-11.41l0.009-56.307c0-4.436-2.052-8.653-5.54-11.392 c-3.504-2.757-7.704-4.739-12.401-2.687l-64.29,32.715l-0.009,53.15l64.299-1.391C364.842,426.578,368.486,426.526,371.981,423.778 z"/> <path class="st0" d="M187.136,441.823c-21.775,19.992-58.577,31.384-58.577,31.384l29.245,11.74L160.439,512 c40.045-15.558,67.882-46.802,81.056-70.142c-0.095,0-1.322,0-3.348-0.035H187.136z"/> <path class="st0" d="M273.845,441.823c-2.017,0.035-3.261,0.035-3.34,0.035c13.175,23.34,41.002,54.585,81.048,70.142l2.635-27.054 l29.236-11.74c0,0-36.785-11.392-58.569-31.384H273.845z"/> <path class="st0" d="M478.43,221.367c0-9.192-3.33-17.592-8.836-24.106c3.932-7.574,5.322-16.523,3.279-25.497 c-2.235-9.783-8.131-17.766-15.896-22.879c2.712-8.897,2.156-18.81-2.374-27.758c-4.522-8.948-12.158-15.262-20.915-18.349 c0.487-9.279-2.426-18.748-8.956-26.34c-6.531-7.6-15.444-11.896-24.689-12.81c-1.739-9.122-6.826-17.618-14.974-23.436 c-8.166-5.826-17.862-7.87-27.063-6.54c-3.879-8.444-10.87-15.487-20.202-19.184c-9.339-3.696-19.261-3.339-27.879,0.182 c-5.801-7.278-14.288-12.418-24.236-13.748c-9.922-1.33-19.436,1.392-26.932,6.861c-7.357-5.653-16.793-8.618-26.74-7.548 c-9.975,1.07-18.592,5.991-24.576,13.096c-8.514-3.731-18.419-4.348-27.845-0.905c-9.418,3.444-16.592,10.296-20.688,18.636 c-9.148-1.566-18.897,0.226-27.202,5.834c-8.304,5.6-13.609,13.966-15.592,23.037c-9.261,0.67-18.279,4.739-25.01,12.157 c-6.721,7.426-9.878,16.818-9.626,26.105c-8.844,2.861-16.645,8.974-21.401,17.802c-4.766,8.835-5.574,18.722-3.096,27.688 c-7.905,4.922-14.018,12.749-16.496,22.471c-2.487,9.714-0.887,19.496,3.67,27.593c-6.462,6.661-10.496,15.696-10.584,25.706v0.009 c-0.087,10,3.801,19.105,10.14,25.871c-4.696,8.018-6.461,17.766-4.157,27.523c2.322,9.766,8.287,17.697,16.105,22.749 c-2.644,8.922-2,18.819,2.6,27.732c4.608,8.905,12.296,15.149,21.08,18.176c-0.409,9.278,2.582,18.714,9.182,26.253 c6.592,7.54,15.549,11.766,24.793,12.592c1.078,5.391,3.356,10.539,6.714,15.053l0.009-39.342c0-8.94,4.035-17.227,11.062-22.74 c5.478-4.322,11.348-6.522,17.409-6.522c3.122,0,6.21,0.592,9.175,1.756c0.434,0.174,0.852,0.366,1.261,0.565l62.204,31.645 c4.2-7.113,11.913-11.896,20.757-11.896h28.184c8.844,0,16.558,4.792,20.758,11.905l62.204-31.654 c0.243-0.121,0.504-0.243,0.756-0.356c3.122-1.365,6.383-2.053,9.705-2.053c5.966,0,11.818,2.226,17.409,6.627 c6.905,5.409,11.044,13.922,11.044,22.731l-0.009,38.402c2.582-3.948,4.365-8.331,5.314-12.87 c9.252-0.748,18.244-4.887,24.906-12.366c6.661-7.487,9.739-16.905,9.409-26.193c8.818-2.94,16.558-9.122,21.244-17.983 c4.679-8.879,5.41-18.784,2.852-27.724c7.853-4.974,13.897-12.861,16.297-22.61c2.401-9.74,0.722-19.505-3.913-27.558 C474.474,240.446,478.43,231.376,478.43,221.367z M112.663,98.082c6.087,0,11.027,4.94,11.027,11.027 c0,6.088-4.94,11.027-11.027,11.027c-6.088,0-11.026-4.939-11.026-11.027C101.637,103.022,106.575,98.082,112.663,98.082z M76.583,183.286c0-6.086,4.931-11.026,11.027-11.026c6.087,0,11.018,4.94,11.018,11.026c0,6.088-4.93,11.027-11.018,11.027 C81.513,194.313,76.583,189.374,76.583,183.286z M94.619,314.59c-6.087,0-11.018-4.94-11.018-11.027 c0-6.087,4.931-11.027,11.018-11.027c6.095,0,11.027,4.94,11.027,11.027C105.645,309.65,100.714,314.59,94.619,314.59z M118.68,264.473c-6.087,0-11.027-4.94-11.027-11.026c0-6.087,4.94-11.027,11.027-11.027c6.088,0,11.027,4.94,11.027,11.027 C129.707,259.534,124.768,264.473,118.68,264.473z M323.152,90.064c6.087,0,11.027,4.94,11.027,11.027 c0,6.088-4.94,11.027-11.027,11.027c-6.088,0-11.026-4.94-11.026-11.027C312.126,95.004,317.065,90.064,323.152,90.064z M255.992,27.922c6.096,0,11.027,4.94,11.027,11.027c0,6.087-4.93,11.026-11.027,11.026c-6.087,0-11.018-4.938-11.018-11.026 C244.974,32.861,249.905,27.922,255.992,27.922z M181.823,74.028c6.088,0,11.027,4.94,11.027,11.027 c0,6.087-4.939,11.027-11.027,11.027c-6.087,0-11.026-4.94-11.026-11.027C170.797,78.968,175.735,74.028,181.823,74.028z M349.788,249.621c-1.982,5.844-2.417,11.818-1.574,17.531c-5.235,2.435-9.992,6.105-13.775,10.992 c-3.783,4.896-6.131,10.436-7.174,16.131c-5.756,0.626-11.453,2.565-16.61,5.992h0.009c-5.14,3.409-9.149,7.887-11.958,12.922 c-5.617-1.252-11.618-1.261-17.574,0.296c-5.983,1.566-11.218,4.505-15.514,8.366c-4.948-3.026-10.653-4.974-16.836-5.409 c-6.157-0.444-12.062,0.661-17.366,2.939c-3.688-4.435-8.427-8.105-14.096-10.514c-5.688-2.418-11.627-3.288-17.384-2.844 c-2.061-5.41-5.374-10.436-9.983-14.558c-4.609-4.122-9.966-6.87-15.566-8.314c-0.21-5.783-1.739-11.6-4.775-16.983 c-3.026-5.366-7.2-9.679-12.018-12.844c1.662-5.522,2.105-11.496,0.983-17.549c-1.122-6.087-3.687-11.54-7.235-16.114 c3.383-4.704,5.722-10.253,6.609-16.392c0.887-6.096,0.218-12.053-1.67-17.505c4.696-3.357,8.696-7.818,11.513-13.306 c2.818-5.496,4.114-11.365,4.105-17.14c5.54-1.661,10.792-4.617,15.244-8.914c4.435-4.305,7.557-9.444,9.401-14.931 c5.783,0.208,11.679-0.887,17.27-3.522c5.566-2.626,10.166-6.47,13.679-11.044c5.383,2.061,11.314,2.939,17.445,2.253 c6.157-0.678,11.792-2.844,16.61-6.062c4.444,3.696,9.801,6.436,15.844,7.766c6.017,1.322,12.009,1.087,17.584-0.392 c3,4.923,7.166,9.244,12.436,12.454c5.278,3.208,11.044,4.93,16.818,5.33c1.261,5.653,3.818,11.105,7.792,15.844 c3.965,4.748,8.87,8.226,14.193,10.452c-0.618,5.748,0.043,11.706,2.27,17.462c2.208,5.748,5.713,10.609,10.026,14.444 c-2.46,5.235-3.756,11.105-3.522,17.28c0.027,0.643,0.113,1.287,0.175,1.93c-0.035,0.652-0.105,1.296-0.105,1.956 c0,6.183,1.531,12.009,4.2,17.149C355.093,238.777,351.789,243.786,349.788,249.621z M398.33,204.331 c-6.096,0-11.027-4.939-11.027-11.027c0-6.086,4.931-11.026,11.027-11.026c6.088,0,11.018,4.94,11.018,11.026 C409.348,199.392,404.418,204.331,398.33,204.331z M405.339,136.171c-6.087,0-11.027-4.931-11.027-11.026 c0-6.088,4.94-11.019,11.027-11.019c6.087,0,11.027,4.931,11.027,11.019C416.366,131.24,411.427,136.171,405.339,136.171z M432.402,278.509c-6.087,0-11.018-4.94-11.018-11.027c0-6.088,4.93-11.027,11.018-11.027c6.096,0,11.027,4.94,11.027,11.027 C443.429,273.57,438.498,278.509,432.402,278.509z"/> </g> </g>
<g id="SVGRepo_iconCarrier"> <style type="text/css"> .st0{fill:#000000;} </style> <g> <path class="st0" d="M279.759,425.718v-52.76c0-5.331-4.34-9.67-9.671-9.67h-28.184c-5.34,0-9.67,4.339-9.67,9.67v52.76 c0,5.339,4.33,9.661,9.67,9.661h28.184C275.419,435.378,279.759,431.057,279.759,425.718z"/> <path class="st0" d="M152.404,426.457l64.299,1.391v-53.15l-64.299-32.715c-4.713-1.86-8.905-0.07-12.4,2.687 c-3.496,2.739-5.531,6.94-5.531,11.392l-0.009,56.307c0,4.444,2.044,8.653,5.54,11.41 C143.499,426.526,147.325,426.578,152.404,426.457z"/> <path class="st0" d="M371.981,423.778c3.496-2.757,5.54-6.948,5.54-11.41l0.009-56.307c0-4.436-2.052-8.653-5.54-11.392 c-3.504-2.757-7.704-4.739-12.401-2.687l-64.29,32.715l-0.009,53.15l64.299-1.391C364.842,426.578,368.486,426.526,371.981,423.778 z"/> <path class="st0" d="M187.136,441.823c-21.775,19.992-58.577,31.384-58.577,31.384l29.245,11.74L160.439,512 c40.045-15.558,67.882-46.802,81.056-70.142c-0.095,0-1.322,0-3.348-0.035H187.136z"/> <path class="st0" d="M273.845,441.823c-2.017,0.035-3.261,0.035-3.34,0.035c13.175,23.34,41.002,54.585,81.048,70.142l2.635-27.054 l29.236-11.74c0,0-36.785-11.392-58.569-31.384H273.845z"/> <path class="st0" d="M478.43,221.367c0-9.192-3.33-17.592-8.836-24.106c3.932-7.574,5.322-16.523,3.279-25.497 c-2.235-9.783-8.131-17.766-15.896-22.879c2.712-8.897,2.156-18.81-2.374-27.758c-4.522-8.948-12.158-15.262-20.915-18.349 c0.487-9.279-2.426-18.748-8.956-26.34c-6.531-7.6-15.444-11.896-24.689-12.81c-1.739-9.122-6.826-17.618-14.974-23.436 c-8.166-5.826-17.862-7.87-27.063-6.54c-3.879-8.444-10.87-15.487-20.202-19.184c-9.339-3.696-19.261-3.339-27.879,0.182 c-5.801-7.278-14.288-12.418-24.236-13.748c-9.922-1.33-19.436,1.392-26.932,6.861c-7.357-5.653-16.793-8.618-26.74-7.548 c-9.975,1.07-18.592,5.991-24.576,13.096c-8.514-3.731-18.419-4.348-27.845-0.905c-9.418,3.444-16.592,10.296-20.688,18.636 c-9.148-1.566-18.897,0.226-27.202,5.834c-8.304,5.6-13.609,13.966-15.592,23.037c-9.261,0.67-18.279,4.739-25.01,12.157 c-6.721,7.426-9.878,16.818-9.626,26.105c-8.844,2.861-16.645,8.974-21.401,17.802c-4.766,8.835-5.574,18.722-3.096,27.688 c-7.905,4.922-14.018,12.749-16.496,22.471c-2.487,9.714-0.887,19.496,3.67,27.593c-6.462,6.661-10.496,15.696-10.584,25.706v0.009 c-0.087,10,3.801,19.105,10.14,25.871c-4.696,8.018-6.461,17.766-4.157,27.523c2.322,9.766,8.287,17.697,16.105,22.749 c-2.644,8.922-2,18.819,2.6,27.732c4.608,8.905,12.296,15.149,21.08,18.176c-0.409,9.278,2.582,18.714,9.182,26.253 c6.592,7.54,15.549,11.766,24.793,12.592c1.078,5.391,3.356,10.539,6.714,15.053l0.009-39.342c0-8.94,4.035-17.227,11.062-22.74 c5.478-4.322,11.348-6.522,17.409-6.522c3.122,0,6.21,0.592,9.175,1.756c0.434,0.174,0.852,0.366,1.261,0.565l62.204,31.645 c4.2-7.113,11.913-11.896,20.757-11.896h28.184c8.844,0,16.558,4.792,20.758,11.905l62.204-31.654 c0.243-0.121,0.504-0.243,0.756-0.356c3.122-1.365,6.383-2.053,9.705-2.053c5.966,0,11.818,2.226,17.409,6.627 c6.905,5.409,11.044,13.922,11.044,22.731l-0.009,38.402c2.582-3.948,4.365-8.331,5.314-12.87 c9.252-0.748,18.244-4.887,24.906-12.366c6.661-7.487,9.739-16.905,9.409-26.193c8.818-2.94,16.558-9.122,21.244-17.983 c4.679-8.879,5.41-18.784,2.852-27.724c7.853-4.974,13.897-12.861,16.297-22.61c2.401-9.74,0.722-19.505-3.913-27.558 C474.474,240.446,478.43,231.376,478.43,221.367z M112.663,98.082c6.087,0,11.027,4.94,11.027,11.027 c0,6.088-4.94,11.027-11.027,11.027c-6.088,0-11.026-4.939-11.026-11.027C101.637,103.022,106.575,98.082,112.663,98.082z M76.583,183.286c0-6.086,4.931-11.026,11.027-11.026c6.087,0,11.018,4.94,11.018,11.026c0,6.088-4.93,11.027-11.018,11.027 C81.513,194.313,76.583,189.374,76.583,183.286z M94.619,314.59c-6.087,0-11.018-4.94-11.018-11.027 c0-6.087,4.931-11.027,11.018-11.027c6.095,0,11.027,4.94,11.027,11.027C105.645,309.65,100.714,314.59,94.619,314.59z M118.68,264.473c-6.087,0-11.027-4.94-11.027-11.026c0-6.087,4.94-11.027,11.027-11.027c6.088,0,11.027,4.94,11.027,11.027 C129.707,259.534,124.768,264.473,118.68,264.473z M323.152,90.064c6.087,0,11.027,4.94,11.027,11.027 c0,6.088-4.94,11.027-11.027,11.027c-6.088,0-11.026-4.94-11.026-11.027C312.126,95.004,317.065,90.064,323.152,90.064z M255.992,27.922c6.096,0,11.027,4.94,11.027,11.027c0,6.087-4.93,11.026-11.027,11.026c-6.087,0-11.018-4.938-11.018-11.026 C244.974,32.861,249.905,27.922,255.992,27.922z M181.823,74.028c6.088,0,11.027,4.94,11.027,11.027 c0,6.087-4.939,11.027-11.027,11.027c-6.087,0-11.026-4.94-11.026-11.027C170.797,78.968,175.735,74.028,181.823,74.028z M349.788,249.621c-1.982,5.844-2.417,11.818-1.574,17.531c-5.235,2.435-9.992,6.105-13.775,10.992 c-3.783,4.896-6.131,10.436-7.174,16.131c-5.756,0.626-11.453,2.565-16.61,5.992h0.009c-5.14,3.409-9.149,7.887-11.958,12.922 c-5.617-1.252-11.618-1.261-17.574,0.296c-5.983,1.566-11.218,4.505-15.514,8.366c-4.948-3.026-10.653-4.974-16.836-5.409 c-6.157-0.444-12.062,0.661-17.366,2.939c-3.688-4.435-8.427-8.105-14.096-10.514c-5.688-2.418-11.627-3.288-17.384-2.844 c-2.061-5.41-5.374-10.436-9.983-14.558c-4.609-4.122-9.966-6.87-15.566-8.314c-0.21-5.783-1.739-11.6-4.775-16.983 c-3.026-5.366-7.2-9.679-12.018-12.844c1.662-5.522,2.105-11.496,0.983-17.549c-1.122-6.087-3.687-11.54-7.235-16.114 c3.383-4.704,5.722-10.253,6.609-16.392c0.887-6.096,0.218-12.053-1.67-17.505c4.696-3.357,8.696-7.818,11.513-13.306 c2.818-5.496,4.114-11.365,4.105-17.14c5.54-1.661,10.792-4.617,15.244-8.914c4.435-4.305,7.557-9.444,9.401-14.931 c5.783,0.208,11.679-0.887,17.27-3.522c5.566-2.626,10.166-6.47,13.679-11.044c5.383,2.061,11.314,2.939,17.445,2.253 c6.157-0.678,11.792-2.844,16.61-6.062c4.444,3.696,9.801,6.436,15.844,7.766c6.017,1.322,12.009,1.087,17.584-0.392 c3,4.923,7.166,9.244,12.436,12.454c5.278,3.208,11.044,4.93,16.818,5.33c1.261,5.653,3.818,11.105,7.792,15.844 c3.965,4.748,8.87,8.226,14.193,10.452c-0.618,5.748,0.043,11.706,2.27,17.462c2.208,5.748,5.713,10.609,10.026,14.444 c-2.46,5.235-3.756,11.105-3.522,17.28c0.027,0.643,0.113,1.287,0.175,1.93c-0.035,0.652-0.105,1.296-0.105,1.956 c0,6.183,1.531,12.009,4.2,17.149C355.093,238.777,351.789,243.786,349.788,249.621z M398.33,204.331 c-6.096,0-11.027-4.939-11.027-11.027c0-6.086,4.931-11.026,11.027-11.026c6.088,0,11.018,4.94,11.018,11.026 C409.348,199.392,404.418,204.331,398.33,204.331z M405.339,136.171c-6.087,0-11.027-4.931-11.027-11.026 c0-6.088,4.94-11.019,11.027-11.019c6.087,0,11.027,4.931,11.027,11.019C416.366,131.24,411.427,136.171,405.339,136.171z M432.402,278.509c-6.087,0-11.018-4.94-11.018-11.027c0-6.088,4.93-11.027,11.018-11.027c6.096,0,11.027,4.94,11.027,11.027 C443.429,273.57,438.498,278.509,432.402,278.509z"/> </g> </g>
</svg>