<!DOCTYPE svg PUBLIC "-//W3C//DTD SVG 1.1//EN" "http://www.w3.org/Graphics/SVG/1.1/DTD/svg11.dtd">
<!-- Uploaded to: SVG Repo, www.svgrepo.com, Transformed by: SVG Repo Mixer Tools -->
<svg fill="#ffffff" height="800px" width="800px" version="1.1" id="Layer_1" xmlns="http://www.w3.org/2000/svg" xmlns:xlink="http://www.w3.org/1999/xlink" viewBox="0 0 480 480" xml:space="preserve" stroke="#ffffff">
<g id="SVGRepo_bgCarrier" stroke-width="0"/>
<g id="SVGRepo_tracerCarrier" stroke-linecap="round" stroke-linejoin="round"/>
<g id="SVGRepo_iconCarrier"> <g> <g> <path d="M472,232h-44.7l25.7-25.7c3.1-3.1,3.1-8.2,0-11.3c-3.1-3.1-8.2-3.1-11.3,0l-37,37h-41.4l25.7-25.7c3.1-3.1,3.1-8.2,0-11.3 c-3.1-3.1-8.2-3.1-11.3,0l-32.9,32.9l-34.6-12.3l18.9-39.8l46.7-0.9c4.4-0.1,7.9-3.6,7.8-8c-0.1-4.4-3.8-8-8.2-7.8l-36,0.8l32-32 l52.6-1.1c4.4-0.2,7.8-2.4,7.6-6.8c-0.2-4.4-4.1-7.8-8.4-7.6l-38.2,1.8l32.6-32.6c3.1-3.1,3.1-8.2,0-11.3c-3.1-3.1-8.2-3.1-11.3,0 L376,100.7V64c0-4.4-3.6-8-8-8c-4.4,0-8,3.6-8,8v52.7l-32,32V112c0-4.4-3.6-8-8-8c-4.4,0-8,3.6-8,8v48.2l-38.8,18.4l-14.9-41.9 l33.6-35.9c3-3.2,2.8-8.3-0.4-11.3c-3.2-3-8.3-2.8-11.3,0.4L256,115.7V75.2l35.8-38.4c3-3.2,2.8-8.3-0.4-11.3 c-3.2-3-8.3-2.8-11.3,0.4L256,51.7V8c0-4.4-3.6-8-8-8c-4.4,0-8,3.6-8,8v44.7l-27-27c-3.1-3.1-8.2-3.1-11.3,0 c-3.1,3.1-3.1,8.2,0,11.3L240,75.3v41.4l-27-27c-3.1-3.1-8.2-3.1-11.3,0c-3.1,3.1-3.1,8.2,0,11.3l34.6,34.6L221,178.7l-37-17.6 V112c0-4.4-3.6-8-8-8c-4.4,0-8,3.6-8,8v36.7l-32-32V64c0-4.4-3.6-8-8-8c-4.4,0-8,3.6-8,8v36.7L89.6,70.3c-3.1-3.1-8.2-3.1-11.3,0 c-3.1,3.1-3.1,8.2,0,11.3l31,31l-36.6-1.3c-4.8-0.1-8.1,3.2-8.2,7.6c-0.1,4.4,3.3,7.8,7.7,8l52.5,1.1l30.4,30.4l-34.6-0.1 c-4.5,0-8,3.7-8,8.1c0,4.4,3.5,8.4,8,8.4l44.7,0.9l18.9,39.8l-46.8,16.6c-0.1,0-0.2-0.1-0.4-0.1l-37.2-37c-3.1-3.1-8.2-3.1-11.3,0 c-3.1,3.1-3.1,8.2,0,11.3L114,232H72.6l-37-37c-3.1-3.1-8.2-3.1-11.3,0c-3.1,3.1-3.1,8.2,0,11.3L50,232H8c-4.4,0-8,3.6-8,8 c0,4.4,3.6,8,8,8h43.8l-27.3,25.5c-3.2,3-3.4,8.1-0.4,11.3c1.6,1.7,3.7,2.5,5.8,2.5c2,0,3.9-0.7,5.5-2.2L75.2,248h40.6l-27.3,25.5 c-3.2,3-3.4,8.1-0.4,11.3c1.6,1.7,3.7,2.5,5.8,2.5c2,0,3.9-0.7,5.5-2.2l36.7-34.3l47.8,17L166.8,304H120c-4.4,0-8,3.6-8,8 c0,4.4,3.6,8,8,8h36.7l-32,32H72c-4.4,0-8,3.6-8,8c0,4.4,3.6,8,8,8h36.7l-30.4,30.4c-3.1,3.1-3.1,8.2,0,11.3 c1.6,1.6,3.6,2.3,5.7,2.3s4.1-0.8,5.7-2.3l31-31l-1.1,36.9c-0.1,4.4,3.3,8.4,7.8,8.4c0.1,0,0.2,0,0.3,0c4.3,0,7.9-3.6,8-7.9 l1.7-53.9l29.2-29.2l-0.2,34.8c0,4.4,3.5,8.2,7.9,8.2c4.4,0,8-3.7,8-8.1l0.3-44.7l38.5-18.3l14.4,40.5L201.7,379 c-3.1,3.1-3.1,8.2,0,11.3c3.1,3.1,8.2,3.1,11.3,0l27-27v41.4L201.7,443c-3.1,3.1-3.1,8.2,0,11.3c3.1,3.1,8.2,3.1,11.3,0l27-27V472 c0,4.4,3.6,8,8,8c4.4,0,8-3.6,8-8v-43.7l24.2,25.8c1.6,1.7,3.7,2.5,5.8,2.5c2,0,3.9-0.7,5.5-2.2c3.2-3,3.4-8.1,0.4-11.3L256,404.8 v-40.6l24.2,25.8c1.6,1.7,3.7,2.5,5.8,2.5c2,0,3.9-0.7,5.5-2.2c3.2-3,3.4-8.1,0.4-11.3l-32.7-34.9l14-39.4l38.7,18.4l1,44.7 c0.1,4.4,3.7,8,8,8c0.1,0,0.1,0,0.2,0c4.4,0,7.9-4,7.8-8.4l-0.8-36.2l28.8,28.8c0,0.1,0,0.1,0,0.2l2.7,55.7c0.2,4.3,3.7,7.8,8,7.8 c0.1,0,0.3,0,0.4,0c4.4,0,7.8-4.2,7.6-8.6l-1.8-38.4l32.7,32.7c1.6,1.6,3.6,2.3,5.7,2.3c2.1,0,4.1-0.8,5.7-2.3 c3.1-3.1,3.1-8.2,0-11.3L387.3,368H424c4.4,0,8-3.6,8-8c0-4.4-3.6-8-8-8h-52.7l-32-32H376c4.4,0,8-3.6,8-8c0-4.4-3.6-8-8-8h-48.7 l-17.2-36.1l35.6-12.7l32.1,30c1.5,1.4,3.5,2.2,5.5,2.2c2.1,0,4.3-0.8,5.8-2.5c3-3.2,2.8-8.3-0.4-11.3l-26-24.3 c0.7-0.3,1.4-0.7,2-1.1H402l39.8,37.2c1.5,1.4,3.5,2.2,5.5,2.2c2.1,0,4.3-0.8,5.8-2.5c3-3.2,2.8-8.3-0.4-11.3L425.5,248H472 c4.4,0,8-3.6,8-8C480,235.6,476.4,232,472,232z M296.5,255.8c-2.1,0.8-3.8,2.4-4.7,4.5c-0.9,2.1-0.8,4.5,0.2,6.5l18,37.8l-37.8-18 c-2-1-4.4-1-6.5-0.2c-2.1,0.8-3.7,2.6-4.5,4.7l-14,39.5l-14-39.5c-0.8-2.1-2.4-3.8-4.5-4.7c-1-0.4-2-0.6-3.1-0.6 c-1.2,0-2.3,0.3-3.4,0.8l-37.8,18l18-37.8c1-2,1-4.4,0.2-6.5c-0.8-2.1-2.6-3.7-4.7-4.5l-39.5-14l39.5-14c2.1-0.8,3.8-2.4,4.7-4.5 c0.9-2.1,0.8-4.5-0.2-6.5l-18-37.8l37.8,18c2,1,4.4,1,6.5,0.2c2.1-0.8,3.7-2.6,4.5-4.7l14-39.5l14,39.5c0.8,2.1,2.4,3.8,4.5,4.7 c2.1,0.9,4.4,0.8,6.5-0.2l37.8-18l-18,37.8c-1,2-1,4.4-0.2,6.5c0.8,2.1,2.6,3.7,4.7,4.5l38.2,13.6c0,0.1,0,0.1,0,0.2 c0,0.2,0.1,0.4,0.2,0.7L296.5,255.8z"/> </g> </g> <g> <g> <path d="M272,232h-4.7l2.3-2.3c3.1-3.1,3.1-8.2,0-11.3c-3.1-3.1-8.2-3.1-11.3,0l-2.3,2.3V216c0-4.4-3.6-8-8-8c-4.4,0-8,3.6-8,8 v4.7l-2.3-2.3c-3.1-3.1-8.2-3.1-11.3,0c-3.1,3.1-3.1,8.2,0,11.3l2.3,2.3H224c-4.4,0-8,3.6-8,8c0,4.4,3.6,8,8,8h4.7l-2.3,2.3 c-3.1,3.1-3.1,8.2,0,11.3c1.6,1.6,3.6,2.3,5.7,2.3c2.1,0,4.1-0.8,5.7-2.3l2.3-2.3v4.7c0,4.4,3.6,8,8,8c4.4,0,8-3.6,8-8v-4.7 l2.3,2.3c1.6,1.6,3.6,2.3,5.7,2.3c2.1,0,4.1-0.8,5.7-2.3c3.1-3.1,3.1-8.2,0-11.3l-2.3-2.3h4.7c4.4,0,8-3.6,8-8 C280.2,235.6,276.4,232,272,232z"/> </g> </g> </g>
</svg>